<svg xmlns="http://www.w3.org/2000/svg" viewBox="0 0 1921 1081"><defs>
<style>.cls-1{fill:#231874;stroke:#22186f;stroke-miterlimit:10;}.cls-2{fill:#a9dcbe;}.cls-3{fill:#fdb20d;}.cls-4{fill:#fa5a57;}</style></defs>
<title>background</title>
<g id="Layer_3" data-name="Layer 3"><rect class="cls-1" x="0.5" y="0.5" width="1920" height="1080"/></g>
<g id="Layer_2" data-name="Layer 2">
<polygon class="cls-2" points="1818.19 399.09 1871.35 353.81 1828.39 408.86 1818.19 399.09"/>
<path class="cls-2" d="M1866.93,357.38l-39.59,50.74-9.4-9,49-41.73m6.84-7.14-57.32,48.83,11,10.54,46.32-59.37Z" transform="translate(1 0)"/>
<polygon class="cls-3" points="1254.06 79.81 1258.17 93.33 1189.66 106.81 1254.06 79.81"/><path class="cls-3" d="M1252.74,80.49l3.79,12.45-63.14,12.43,59.35-24.88m.63-1.35-69.44,29.11,73.88-14.54-4.44-14.57Z" transform="translate(1 0)"/><polygon class="cls-4" points="704.06 76.81 708.17 90.33 639.66 103.81 704.06 76.81"/><path class="cls-4" d="M702.74,77.49l3.79,12.45-63.14,12.43,59.35-24.88m.63-1.35-69.44,29.11,73.88-14.54-4.44-14.57Z" transform="translate(1 0)"/><polygon class="cls-2" points="504.46 1004.01 579.83 976.28 584.37 1011.97 504.46 1004.01"/><path class="cls-2" d="M578.41,977l4.38,34.44-77.12-7.68L578.41,977m.83-1.38-78,28.7,82.7,8.24-4.7-36.94Z" transform="translate(1 0)"/><polygon class="cls-3" points="201.23 81.14 271.74 119.59 247.88 146.52 201.23 81.14"/><path class="cls-3" d="M201.9,82.62l68,37.11-23,26-45-63.09m-3.34-3,48.27,67.66,24.7-27.87-73-39.79Z" transform="translate(1 0)"/><polygon class="cls-2" points="417.62 90.27 450.73 70.39 452.56 110.96 417.62 90.27"/><path class="cls-2" d="M449.27,71.25,451,110.06l-33.43-19.8,31.68-19m.92-1.72L415.64,90.27l36.46,21.59-1.91-42.33Z" transform="translate(1 0)"/><polygon class="cls-3" points="170.62 1015.27 203.73 995.39 205.56 1035.96 170.62 1015.27"/><path class="cls-3" d="M202.27,996.25l1.75,38.81-33.43-19.8,31.68-19m.92-1.72-34.55,20.74,36.46,21.59-1.91-42.33Z" transform="translate(1 0)"/><polygon class="cls-4" points="1776.11 528.58 1803.94 510.55 1821.47 568.1 1776.11 528.58"/><path class="cls-4" d="M1802.66,511.33l16.82,55.24-43.54-37.93,26.72-17.31m.57-1.56-28.94,18.76,47.17,41.09-18.23-59.85Z" transform="translate(1 0)"/><polygon class="cls-2" points="56.11 156.58 83.94 138.55 101.47 196.09 56.11 156.58"/><path class="cls-2" d="M82.66,139.33l16.82,55.24L55.94,156.64l26.72-17.31m.57-1.56L54.29,156.53l47.17,41.09L83.23,137.77Z" transform="translate(1 0)"/><polygon class="cls-2" points="312.9 926.5 324.87 904.31 336.84 926.5 312.9 926.5"/><path class="cls-2" d="M323.87,905.36,335,926H312.74l11.13-20.64m0-2.1L311.06,927h25.62l-12.81-23.74Z" transform="translate(1 0)"/><polygon class="cls-3" points="538.62 66.21 571.73 46.33 573.56 86.9 538.62 66.21"/><path class="cls-3" d="M570.27,47.19,572,86,538.59,66.21l31.68-19m.92-1.72L536.64,66.22,573.1,87.81l-1.91-42.34Z" transform="translate(1 0)"/><polygon class="cls-4" points="1736.48 241.42 1759.25 252.25 1739.93 266.4 1736.48 241.42"/><path class="cls-4" d="M1736.1,242.27l21.18,10.07-18,13.16-3.21-23.23m-1.24-1.7,3.69,26.73,20.67-15.14-24.36-11.59Z" transform="translate(1 0)"/><polygon class="cls-2" points="64.72 499.19 98.57 560.26 85.59 565.83 64.72 499.19"/><path class="cls-2" d="M65.66,503.74,96.87,560l-12,5.13L65.66,503.74m-3.89-9.09,22.51,71.86,14-6L61.77,494.65Z" transform="translate(1 0)"/><polygon class="cls-4" points="46.96 1006.01 115.11 963.52 72.35 1031.49 46.96 1006.01"/><path class="cls-4" d="M112.53,965.09,71.26,1030.7l-24.5-24.6,65.77-41m3.16-3.15-70.53,44,26.28,26.38,44.25-70.35Z" transform="translate(1 0)"/><polygon class="cls-3" points="107.8 722.37 135.63 704.34 153.15 761.88 107.8 722.37"/><path class="cls-3" d="M134.34,705.12l16.83,55.23-43.54-37.92,26.71-17.31m.57-1.57L106,722.31l47.17,41.09-18.23-59.85Z" transform="translate(1 0)"/><polygon class="cls-4" points="44.85 284.8 77.96 264.92 79.8 305.49 44.85 284.8"/><path class="cls-4" d="M76.5,265.78l1.75,38.81L44.83,284.8l31.67-19m.92-1.72L42.87,284.8l36.47,21.59-1.92-42.33Z" transform="translate(1 0)"/><polygon class="cls-3" points="1751.06 960.81 1755.17 974.33 1686.66 987.81 1751.06 960.81"/><path class="cls-3" d="M1749.74,961.49l3.79,12.45-63.14,12.43,59.35-24.88m.63-1.35-69.44,29.11,73.88-14.54-4.44-14.57Z" transform="translate(1 0)"/><polygon class="cls-4" points="704.06 76.81 708.17 90.33 639.66 103.81 704.06 76.81"/><path class="cls-4" d="M702.74,77.49l3.79,12.45-63.14,12.43,59.35-24.88m.63-1.35-69.44,29.11,73.88-14.54-4.44-14.57Z" transform="translate(1 0)"/><polygon class="cls-2" points="504.46 1004.01 579.83 976.28 584.37 1011.97 504.46 1004.01"/><path class="cls-2" d="M578.41,977l4.38,34.44-77.12-7.68L578.41,977m.83-1.38-78,28.7,82.7,8.24-4.7-36.94Z" transform="translate(1 0)"/><polygon class="cls-3" points="201.23 81.14 271.74 119.59 247.88 146.52 201.23 81.14"/><path class="cls-3" d="M201.9,82.62l68,37.11-23,26-45-63.09m-3.34-3,48.27,67.66,24.7-27.87-73-39.79Z" transform="translate(1 0)"/><polygon class="cls-2" points="417.62 90.27 450.73 70.39 452.56 110.96 417.62 90.27"/><path class="cls-2" d="M449.27,71.25,451,110.06l-33.43-19.8,31.68-19m.92-1.72L415.64,90.27l36.46,21.59-1.91-42.33Z" transform="translate(1 0)"/><polygon class="cls-3" points="960.62 115.27 993.73 95.39 995.56 135.96 960.62 115.27"/><path class="cls-3" d="M992.27,96.25,994,135.06l-33.43-19.8,31.68-19m.92-1.72-34.55,20.74,36.46,21.59-1.91-42.33Z" transform="translate(1 0)"/><polygon class="cls-4" points="1016.66 914.3 1055.4 868.28 1046.94 927.83 1016.66 914.3"/><path class="cls-4" d="M1053.65,869.93l-8.11,57.18-29.07-13,37.18-44.19m1.49-3.31-40.29,47.87,31.49,14.07,8.8-61.94Z" transform="translate(1 0)"/><polygon class="cls-2" points="1065.11 59.58 1092.94 41.55 1110.47 99.09 1065.11 59.58"/><path class="cls-2" d="M1091.66,42.33l16.82,55.24-43.54-37.93,26.72-17.31m.57-1.56-28.94,18.76,47.17,41.09-18.23-59.85Z" transform="translate(1 0)"/><polygon class="cls-2" points="286.9 60.5 298.87 38.31 310.84 60.5 286.9 60.5"/><path class="cls-2" d="M297.87,39.36,309,60H286.74l11.13-20.64m0-2.1L285.06,61h25.62L297.87,37.26Z" transform="translate(1 0)"/><polygon class="cls-4" points="1594.9 1035.5 1606.87 1013.31 1618.84 1035.5 1594.9 1035.5"/><path class="cls-4" d="M1605.87,1014.36,1617,1035h-22.26l11.13-20.64m0-2.1L1593.06,1036h25.62l-12.81-23.74Z" transform="translate(1 0)"/><polygon class="cls-3" points="733.62 997.21 766.73 977.33 768.56 1017.9 733.62 997.21"/><path class="cls-3" d="M765.27,978.19,767,1017l-33.43-19.79,31.68-19m.92-1.72-34.55,20.75,36.46,21.59-1.91-42.34Z" transform="translate(1 0)"/><polygon class="cls-2" points="99.8 374.19 124.84 371.18 116.07 393.45 99.8 374.19"/><path class="cls-2" d="M123.07,371.77l-8.16,20.72L99.78,374.57l23.29-2.8m1.54-1.19L97.82,373.8l17.41,20.62,9.38-23.84Z" transform="translate(1 0)"/><polygon class="cls-4" points="888.48 36.42 911.25 47.25 891.93 61.4 888.48 36.42"/><path class="cls-4" d="M888.1,37.27l21.18,10.07-18,13.16L888.1,37.27m-1.24-1.7,3.69,26.73,20.67-15.14L886.86,35.57Z" transform="translate(1 0)"/></g><g id="Layer_5" data-name="Layer 5"><polygon class="cls-4" points="1805.43 59.31 1830.82 84.8 1762.67 127.29 1805.43 59.31"/><path class="cls-4" d="M1804.52,60.11l24.5,24.6-65.77,41,41.27-65.6m-.18-1.6-44.25,70.35,70.53-44-26.28-26.38Z" transform="translate(1 0)"/><polygon class="cls-3" points="1847.63 178.93 1892.98 218.44 1865.15 236.47 1847.63 178.93"/><path class="cls-3" d="M1847.61,180.45l43.54,37.93-26.71,17.31-16.83-55.24m-2-3,18.23,59.84,28.94-18.75-47.17-41.09Z" transform="translate(1 0)"/><polygon class="cls-4" points="1790.98 818.31 1825.93 839 1792.82 858.88 1790.98 818.31"/><path class="cls-4" d="M1790.53,819.21,1824,839l-31.67,19-1.75-38.81m-1.09-1.8,1.92,42.33L1825.91,839l-36.47-21.59Z" transform="translate(1 0)"/><polygon class="cls-3" points="1582.01 518.5 1605.95 518.5 1593.98 540.69 1582.01 518.5"/><path class="cls-3" d="M1604.11,519,1593,539.64,1581.84,519h22.27m1.67-1h-25.61L1593,541.74l12.8-23.74Z" transform="translate(1 0)"/><polygon class="cls-2" points="943.39 986.94 953.59 996.72 900.43 1042 943.39 986.94"/><path class="cls-2" d="M942.44,987.69l9.4,9-49,41.74,39.59-50.74m-.11-1.49L896,1045.57l57.32-48.83-11-10.54Z" transform="translate(1 0)"/><polygon class="cls-3" points="146.61 447.48 215.12 433.99 150.72 460.99 146.61 447.48"/><path class="cls-3" d="M209.39,435.43,150,460.32l-3.79-12.46,63.14-12.43m9.46-2.88L145,447.1l4.44,14.57,69.44-29.12Z" transform="translate(1 0)"/><polygon class="cls-4" points="1281.61 929.48 1350.12 915.99 1285.73 942.99 1281.61 929.48"/><path class="cls-4" d="M1344.39,917.43,1285,942.32l-3.79-12.46,63.14-12.43m9.46-2.88L1280,929.1l4.44,14.57,69.44-29.12Z" transform="translate(1 0)"/><polygon class="cls-2" points="1382.41 54.84 1462.32 62.8 1386.96 90.53 1382.41 54.84"/><path class="cls-2" d="M1382,55.4l77.12,7.68-72.74,26.76L1382,55.4m-1.15-1.12,4.7,36.93,78-28.7-82.7-8.23Z" transform="translate(1 0)"/><polygon class="cls-3" points="1154.04 1009.21 1177.91 982.29 1224.55 1047.66 1154.04 1009.21"/><path class="cls-3" d="M1176.86,983.09l45,63.09-68.05-37.11,23-26m.09-1.6-24.7,27.86,73,39.79L1177,981.49Z" transform="translate(1 0)"/><polygon class="cls-2" points="1436.22 954.85 1471.16 975.54 1438.05 995.41 1436.22 954.85"/><path class="cls-2" d="M1435.76,955.75l33.43,19.79-31.68,19-1.75-38.81m-1.08-1.81,1.91,42.34,34.55-20.75-36.46-21.59Z" transform="translate(1 0)"/><polygon class="cls-4" points="355.31 991.71 400.67 1031.22 372.84 1049.25 355.31 991.71"/><path class="cls-4" d="M355.3,993.23l43.54,37.93-26.72,17.31L355.3,993.23m-2-3L371.55,1050l28.95-18.75-47.18-41.09Z" transform="translate(1 0)"/><polygon class="cls-2" points="1849.31 983.71 1894.67 1023.22 1866.84 1041.25 1849.31 983.71"/><path class="cls-2" d="M1849.3,985.23l43.54,37.93-26.72,17.31-16.82-55.24m-2-3,18.23,59.84,29-18.75-47.18-41.09Z" transform="translate(1 0)"/><polygon class="cls-2" points="1641.94 114.28 1665.88 114.28 1653.91 136.47 1641.94 114.28"/><path class="cls-2" d="M1664,114.78l-11.13,20.64-11.13-20.64H1664m1.68-1H1640.1l12.81,23.75,12.81-23.75Z" transform="translate(1 0)"/><polygon class="cls-3" points="1567.22 28.9 1602.16 49.59 1569.05 69.47 1567.22 28.9"/><path class="cls-3" d="M1566.76,29.8l33.43,19.79-31.68,19-1.75-38.81m-1.08-1.8,1.91,42.33,34.55-20.74L1565.68,28Z" transform="translate(1 0)"/><polygon class="cls-4" points="91.53 62.55 110.85 48.41 114.3 73.38 91.53 62.55"/><path class="cls-4" d="M109.47,49.3l3.21,23.23L91.5,62.46l18-13.16m.76-1.79L89.56,62.64l24.36,11.59-3.69-26.72Z" transform="translate(1 0)"/><polygon class="cls-2" points="809.21 85.54 822.19 79.98 843.07 146.61 809.21 85.54"/><path class="cls-2" d="M820.88,80.65l19.24,61.42L808.91,85.78l12-5.13m.62-1.35-14,6L844,151.15,821.5,79.3Z" transform="translate(1 0)"/><polygon class="cls-2" points="59.79 834.5 105.15 874.01 77.32 892.04 59.79 834.5"/><path class="cls-2" d="M59.78,836,103.32,874,76.6,891.26,59.78,836m-2-3L76,892.82l29-18.75L57.8,833Z" transform="translate(1 0)"/><polygon class="cls-4" points="38.42 648.5 62.36 648.5 50.39 670.69 38.42 648.5"/><path class="cls-4" d="M60.52,649,49.39,669.64,38.26,649H60.52m1.68-1H36.58l12.81,23.74L62.2,648Z" transform="translate(1 0)"/><polygon class="cls-3" points="256.44 552.25 289.56 532.37 291.39 572.94 256.44 552.25"/><path class="cls-3" d="M288.1,533.23,289.85,572l-33.43-19.79,31.68-19m.92-1.72-34.55,20.74,36.46,21.59L289,531.51Z" transform="translate(1 0)"/><polygon class="cls-3" points="651.66 209.5 663.63 187.31 675.6 209.5 651.66 209.5"/><path class="cls-3" d="M662.63,188.36,673.76,209H651.5l11.13-20.64m0-2.1L649.82,210h25.62l-12.81-23.74Z" transform="translate(1 0)"/><polygon class="cls-2" points="1530.29 259.99 1605.65 232.26 1610.2 267.95 1530.29 259.99"/><path class="cls-2" d="M1604.24,233l4.38,34.44-77.12-7.68L1604.24,233m.83-1.38-78,28.7,82.7,8.24-4.7-36.94Z" transform="translate(1 0)"/><polygon class="cls-3" points="797.45 525.19 830.56 505.31 832.39 545.88 797.45 525.19"/><path class="cls-3" d="M829.1,506.18l1.75,38.8-33.43-19.79,31.68-19m.92-1.73L795.47,525.2l36.46,21.59L830,504.45Z" transform="translate(1 0)"/><polygon class="cls-4" points="623.44 830.46 691.95 816.97 627.55 843.97 623.44 830.46"/><path class="cls-4" d="M686.22,818.41,626.87,843.3l-3.79-12.46,63.14-12.43m9.46-2.88L621.8,830.08l4.44,14.57,69.44-29.12Z" transform="translate(1 0)"/><polygon class="cls-2" points="1426.05 515.83 1460.99 536.52 1427.88 556.4 1426.05 515.83"/><path class="cls-2" d="M1425.59,516.73,1459,536.52l-31.68,19-1.75-38.81m-1.08-1.81,1.91,42.34L1461,536.51l-36.46-21.59Z" transform="translate(1 0)"/><polygon class="cls-4" points="548.14 644.69 593.5 684.2 565.67 702.23 548.14 644.69"/><path class="cls-4" d="M548.13,646.21l43.54,37.93L565,701.45l-16.82-55.24m-2-3L564.38,703l28.94-18.75-47.17-41.09Z" transform="translate(1 0)"/><polygon class="cls-2" points="1799.14 665.69 1844.49 705.2 1816.67 723.23 1799.14 665.69"/><path class="cls-2" d="M1799.13,667.21l43.54,37.93L1816,722.45l-16.82-55.24m-2-3L1815.38,724l28.94-18.75-47.17-41.09Z" transform="translate(1 0)"/><polygon class="cls-4" points="931.77 686.5 955.71 686.5 943.74 708.69 931.77 686.5"/><path class="cls-4" d="M953.87,687l-11.13,20.64L931.61,687h22.26m1.68-1H929.93l12.81,23.74L955.55,686Z" transform="translate(1 0)"/><polygon class="cls-3" points="1723.96 362.51 1758.89 383.23 1725.76 403.08 1723.96 362.51"/><path class="cls-3" d="M1723.5,363.41l33.41,19.83-31.69,19-1.72-38.81m-1.08-1.8,1.88,42.33,34.56-20.71-36.44-21.62Z" transform="translate(1 0)"/><polygon class="cls-2" points="1665.62 760.48 1689.56 760.5 1677.57 782.68 1665.62 760.48"/><path class="cls-2" d="M1665.46,761l22.26,0-11.15,20.63L1665.46,761m-1.68-1,12.79,23.75L1689.4,760l-25.62,0Z" transform="translate(1 0)"/><polygon class="cls-3" points="207.75 254.48 231.69 254.5 219.7 276.68 207.75 254.48"/><path class="cls-3" d="M207.58,255l22.27,0L218.7,275.63,207.58,255m-1.67-1,12.79,23.75L231.52,254l-25.61,0Z" transform="translate(1 0)"/><polygon class="cls-4" points="978.58 352.94 1008.85 366.5 970.07 412.49 978.58 352.94"/><path class="cls-4" d="M978,353.67l29.06,13-37.22,44.15L978,353.67m-.8-1.45-8.85,61.93,40.33-47.83-31.48-14.1Z" transform="translate(1 0)"/><polygon class="cls-3" points="1274.47 316.22 1314.93 312.72 1299.56 348.15 1274.47 316.22"/><path class="cls-3" d="M1313.14,313.29l-14.7,33.9-24-30.55,38.7-3.35m1.58-1.14-42.21,3.65,26.18,33.32,16-37Z" transform="translate(1 0)"/><polygon class="cls-2" points="1223.9 520.15 1277.1 474.92 1234.1 529.93 1223.9 520.15"/><path class="cls-2" d="M1272.68,478.48,1233,529.19l-9.39-9,49-41.69m6.84-7.13-57.36,48.78,11,10.55,46.37-59.33Z" transform="translate(1 0)"/><polygon class="cls-4" points="1698.76 641.58 1702.87 655.1 1634.34 668.53 1698.76 641.58"/><path class="cls-4" d="M1697.44,642.26l3.79,12.46-63.16,12.37,59.37-24.83m.64-1.35L1628.61,670l73.89-14.48-4.42-14.58Z" transform="translate(1 0)"/><polygon class="cls-3" points="418.98 803.98 489.45 842.5 465.57 869.4 418.98 803.98"/><path class="cls-3" d="M419.65,805.46l68,37.17-23.05,26-45-63.14m-3.34-3,48.21,67.7,24.72-27.84L416.31,802.5Z" transform="translate(1 0)"/><polygon class="cls-2" points="698.32 615.84 731.45 595.99 733.24 636.56 698.32 615.84"/><path class="cls-2" d="M730,596.85l1.72,38.81-33.41-19.83,31.69-19m.93-1.72-34.57,20.71,36.44,21.62-1.87-42.33Z" transform="translate(1 0)"/><polygon class="cls-4" points="1457.85 382.09 1485.69 364.08 1503.17 421.63 1457.85 382.09"/><path class="cls-4" d="M1484.41,364.86l16.78,55.25-43.51-38,26.73-17.29m.57-1.56L1456,382l47.14,41.13L1485,363.3Z" transform="translate(1 0)"/><polygon class="cls-2" points="1221.84 804.82 1249.69 786.81 1267.17 844.37 1221.84 804.82"/><path class="cls-2" d="M1248.4,787.59l16.78,55.26-43.51-38,26.73-17.29M1249,786l-29,18.73,47.14,41.13L1249,786Z" transform="translate(1 0)"/><polygon class="cls-4" points="1122.59 427.44 1134.58 405.25 1146.53 427.46 1122.59 427.44"/><path class="cls-4" d="M1133.58,406.31,1144.69,427l-22.26,0,11.15-20.63m0-2.11-12.83,23.74,25.62,0-12.79-23.76Z" transform="translate(1 0)"/><polygon class="cls-3" points="1150.69 620.5 1174.63 620.5 1162.66 642.69 1150.69 620.5"/><path class="cls-3" d="M1172.79,621l-11.13,20.64L1150.53,621h22.26m1.68-1h-25.62l12.81,23.74L1174.47,620Z" transform="translate(1 0)"/></g><g id="Layer_6" data-name="Layer 6"><polygon class="cls-3" points="789.48 826.54 847.22 809.69 807.18 854.58 789.48 826.54"/><path class="cls-3" d="M844.69,810.66l-38.44,43.09-17-26.91,55.44-16.18m3.07-1.93L787.7,826.25l18.41,29.16,41.65-46.68Z" transform="translate(1 0)"/><polygon class="cls-2" points="1059.48 239.1 1081.65 248.13 1062.19 264.17 1059.48 239.1"/><path class="cls-2" d="M1059.06,239.88l20.62,8.4-18.09,14.91-2.53-23.31m-1.17-1.56,2.9,26.82L1081.61,248l-23.72-9.66Z" transform="translate(1 0)"/><polygon class="cls-4" points="1496.11 796.94 1563.58 840.5 1537.79 865.59 1496.11 796.94"/><path class="cls-4" d="M1496.66,798.54l65.12,42-24.89,24.21-40.23-66.25m-3.11-3.2,43.14,71,26.69-26-69.83-45.08Z" transform="translate(1 0)"/><polygon class="cls-3" points="1418.48 184.54 1476.22 167.69 1436.18 212.58 1418.48 184.54"/><path class="cls-3" d="M1473.69,168.66l-38.44,43.09-17-26.91,55.44-16.18m3.07-1.93-60.06,17.52,18.41,29.16,41.65-46.68Z" transform="translate(1 0)"/><polygon class="cls-4" points="356.12 187.85 396.71 186.5 375.61 221.19 356.12 187.85"/><path class="cls-4" d="M394.8,187l-20.18,33.19L356,188.32,394.8,187m1.82-1.07-42.35,1.42,20.33,34.79,22-36.21Z" transform="translate(1 0)"/><polygon class="cls-2" points="1059.48 239.1 1081.65 248.13 1062.19 264.17 1059.48 239.1"/><path class="cls-2" d="M1059.06,239.88l20.62,8.4-18.09,14.91-2.53-23.31m-1.17-1.56,2.9,26.82L1081.61,248l-23.72-9.66Z" transform="translate(1 0)"/><polygon class="cls-4" points="854.69 245.54 879.71 242.38 868.61 265.02 854.69 245.54"/><path class="cls-4" d="M877.85,243l-10.32,21.06-12.95-18.12L877.85,243m1.71-1.22-26.76,3.38L867.69,266l11.87-24.22Z" transform="translate(1 0)"/><polygon class="cls-2" points="495.49 517.85 513.19 545.89 455.45 562.73 495.49 517.85"/><path class="cls-2" d="M494.42,518.67l17,26.92L456,561.77l38.44-43.1m.14-1.65L452.92,563.7,513,546.18,494.56,517Z" transform="translate(1 0)"/><polygon class="cls-4" points="1235.49 175.97 1257.54 188.2 1235.21 199.91 1235.49 175.97"/><path class="cls-4" d="M1235,176.82l20.51,11.37-20.77,10.89.26-22.26m-1-1.69-.3,25.61,23.89-12.52L1234,175.13Z" transform="translate(1 0)"/><polygon class="cls-3" points="759.31 328.31 808.05 363.56 781.96 384.03 759.31 328.31"/><path class="cls-3" d="M759.43,329.73l46.79,33.85-25,19.65-21.75-53.5m-2.24-2.85,23.56,57.95,27.13-21.29-50.69-36.66Z" transform="translate(1 0)"/><polygon class="cls-2" points="1003.02 513.3 1021.23 541.01 963.81 558.92 1003.02 513.3"/><path class="cls-2" d="M1002,514.13l17.48,26.6-55.12,17.19L1002,514.13m.1-1.66-40.78,47.45L1021,541.29l-18.95-28.82Z" transform="translate(1 0)"/><polygon class="cls-2" points="288.3 684.67 307.46 668.28 310.63 693.29 288.3 684.67"/><path class="cls-2" d="M306.08,669.27,309,692.53l-20.77-8,17.82-15.24m.76-2-20.5,17.54,23.89,9.22-3.39-26.76Z" transform="translate(1 0)"/><polygon class="cls-4" points="334.23 374.26 359.55 348.7 402.49 416.57 334.23 374.26"/><path class="cls-4" d="M358.47,349.5,399.91,415,334,374.16l24.44-24.66m.17-1.6-26.2,26.45,70.64,43.79L358.64,347.9Z" transform="translate(1 0)"/><polygon class="cls-4" points="254.73 807.81 274.83 840.79 234.27 842.89 254.73 807.81"/><path class="cls-4" d="M253.74,808.79,273,840.33l-38.79,2,19.57-33.55m0-2-21.35,36.61,42.32-2.19-21-34.42Z" transform="translate(1 0)"/><polygon class="cls-2" points="1056.3 753.67 1075.46 737.28 1078.63 762.29 1056.3 753.67"/><path class="cls-2" d="M1074.08,738.27l3,23.26-20.77-8,17.82-15.24m.76-2-20.5,17.54,23.89,9.22-3.39-26.76Z" transform="translate(1 0)"/><polygon class="cls-3" points="1363.64 695.97 1377.13 691.76 1391.07 760.18 1363.64 695.97"/><path class="cls-3" d="M1375.75,692.4l12.85,63.06-25.28-59.18,12.43-3.88m.76-1.28L1362,695.65l29.58,69.25-15-73.78Z" transform="translate(1 0)"/><polygon class="cls-2" points="491.71 319.3 549.14 301.39 509.93 347.01 491.71 319.3"/><path class="cls-2" d="M546.62,302.39,509,346.18l-17.48-26.6,55.12-17.19m3-2L489.93,319l18.95,28.82,40.78-47.44Z" transform="translate(1 0)"/><polygon class="cls-4" points="568.23 418.91 590.34 406.79 590.5 430.73 568.23 418.91"/><path class="cls-4" d="M588.84,407.63,589,429.9l-20.71-11,20.56-11.27m1-1.68-23.66,13L590,431.57,589.83,406Z" transform="translate(1 0)"/>
</g>
</svg>